<?xml version="1.0" encoding="utf-8"?>
<!-- Generator: Adobe Illustrator 24.2.0, SVG Export Plug-In . SVG Version: 6.00 Build 0)  -->
<svg version="1.1" id="Layer_1" fill="#fff" height="1000" width="1000"  xmlns="http://www.w3.org/2000/svg" xmlns:xlink="http://www.w3.org/1999/xlink" x="0px" y="0px"
	 viewBox="0 0 1027 1027" style="enable-background:new 0 0 1027 1027;" xml:space="preserve">
<style type="text/css">
	.st0{stroke:#fff;stroke-width:47;stroke-miterlimit:10;}
</style>
<g>
	<path class="st0" d="M513.5,23.5c-270.6,0-490,219.4-490,490s219.4,490,490,490s490-219.4,490-490S784.1,23.5,513.5,23.5z
		 M82.9,513.5c0-237.8,192.8-430.6,430.6-430.6c103.2,0,197.9,36.3,272.1,96.8c11.2,9.2,22,18.9,32.2,29.1L195,803.3
		c-1.1-1.2-2.1-2.4-3.2-3.6C124.1,723.7,82.9,623.4,82.9,513.5z M513.5,944.1c-103.7,0-198.8-36.6-273.1-97.7l618.4-590.3
		c53.6,71.8,85.3,160.9,85.3,257.4C944.1,751.3,751.3,944.1,513.5,944.1z"/>
</g>
</svg>
