<svg xmlns="http://www.w3.org/2000/svg" xmlns:xlink="http://www.w3.org/1999/xlink" x="0px" y="0px" viewBox="0 0 1000 1000" xml:space="preserve" width="30px" height="30px">
<metadata> Svg Vector Icons : http://www.onlinewebfonts.com/icon </metadata>
<g><g transform="translate(0.000000,511.000000) scale(0.100000,-0.100000)"><path d="M4837.1,4991.9c-180.3-68.1-288.4-170.3-576.9-548.8c-104.2-134.2-214.3-268.4-246.4-296.4c-100.2-82.1-176.3-70.1-606.9,104.2c-344.5,138.2-398.6,154.2-548.8,162.2c-214.3,12-312.5-24-432.7-158.2c-110.2-122.2-160.2-266.4-202.3-566.8c-80.1-584.9-90.1-627-176.3-683c-52.1-34.1-226.3-68.1-614.9-120.2c-308.5-40.1-456.7-92.1-578.9-202.3c-134.2-120.2-170.3-218.3-158.2-432.7c8-150.2,24-204.3,162.2-548.8c170.3-424.6,184.3-496.7,106.2-598.9c-28-36.1-176.3-160.2-330.5-278.4C330.3,591.4,246.2,509.2,158.1,359C108,274.9,100,240.8,100,110.6c2-252.4,94.1-376.6,530.8-711.1C785-718.6,933.3-840.8,961.3-874.8c78.1-94.1,68.1-184.3-62.1-496.7c-166.2-402.6-210.3-548.8-210.3-701c0-176.3,44.1-280.4,164.2-388.6c134.2-120.2,270.4-162.3,717.1-222.3c218.3-28,396.6-64.1,440.7-84.1c98.1-48.1,134.2-132.2,170.3-406.6c60.1-440.7,74.1-510.8,114.2-635c50.1-152.2,182.3-306.4,302.5-356.5c104.2-42.1,304.4-42.1,444.7-2c60.1,18,206.3,74.1,326.5,124.2c442.7,188.3,538.8,206.3,643,118.2c34.1-28.1,156.2-176.3,274.4-330.5c118.2-156.2,262.4-322.5,318.5-372.5c254.4-222.3,536.8-218.3,801.2,14c50.1,44.1,184.3,204.3,300.4,356.6c116.2,152.2,238.3,300.4,272.4,330.5c110.2,92.1,168.3,80.1,731.1-148.2c224.3-92.1,284.4-108.2,426.6-116.2c212.3-12,312.5,24,428.6,154.2c120.2,134.2,168.2,284.4,226.3,721.1c56.1,414.6,84.1,494.7,192.3,548.8c44.1,20,222.3,56.1,440.7,84.1c446.7,60.1,582.9,102.2,717.1,222.3c134.2,120.2,170.3,218.3,158.2,432.6c-8,142.2-24,202.3-116.2,426.6c-228.4,562.9-240.4,620.9-148.2,731.1c30,34.1,178.3,156.2,330.5,272.4C9518.1-482.2,9678.3-348,9722.4-298c232.3,264.4,236.3,546.8,14,801.2c-50.1,56.1-216.3,200.3-372.5,318.5c-154.2,118.2-302.4,240.4-330.5,274.4c-90.1,106.2-78.1,168.3,150.2,727.1c92.1,224.3,108.2,284.4,116.2,426.6c6,124.2,0,186.3-24,254.4c-48.1,126.2-200.3,256.4-358.5,308.5c-124.2,40.1-194.3,54.1-635,114.2c-274.4,36-358.5,72.1-406.6,170.3c-20,44-56.1,222.3-84.1,440.7c-60.1,446.7-102.1,582.9-222.3,717.1c-110.2,122.2-216.3,166.3-388.6,166.3c-152.2-2-302.4-48.1-701.1-212.3c-312.5-130.2-402.6-140.2-496.7-62.1c-34,28-156.2,176.3-274.4,330.5c-224.3,294.4-346.5,416.6-480.7,484.7C5129.5,5014,4933.2,5028,4837.1,4991.9z M5131.5,4521.2c42.1-42.1,160.2-184.3,262.4-316.5c430.6-566.8,628.9-635,1181.8-406.6c310.5,130.2,562.9,218.3,614.9,218.3c98.2,0,132.2-98.1,190.3-538.8c100.1-765.1,218.3-883.3,981.5-983.5c354.5-46.1,438.7-66.1,504.8-118.2l46.1-38.1l-34.1-128.2c-18-68.1-86.1-256.4-152.2-416.6c-276.4-663-226.3-837.3,364.5-1285.9c300.5-230.3,392.6-322.5,392.6-396.6c0-72.1-100.2-172.3-402.6-402.6c-258.4-198.3-392.6-330.5-462.7-460.7c-38-74.1-46.1-116.2-44.1-258.4c2-190.3,12-228.3,190.3-655c66.1-156.2,124.2-324.5,130.2-372.5c12-80.1,8-94.2-38-122.2c-74.1-50.1-156.2-68.1-494.7-112.2c-368.6-48.1-486.7-76.1-626.9-154.2c-204.3-114.2-286.4-308.4-354.5-827.2c-46.1-354.5-66.1-438.7-118.2-504.8l-38-46.1l-128.2,34.1c-68.1,18-256.4,86.1-416.6,152.2c-663,276.4-837.3,226.3-1285.9-364.6c-230.3-300.4-322.5-392.6-396.6-392.6s-166.2,92.1-396.6,392.6c-448.7,590.9-622.9,641-1285.9,364.6c-160.2-66.1-348.5-134.2-416.6-152.2l-128.2-34.1l-38.1,46.1c-52.1,66.1-72.1,150.2-118.2,504.8c-100.2,763.2-218.3,881.3-983.5,981.5c-436.7,58.1-538.8,92.1-538.8,186.3c0,58.1,68.1,252.4,198.3,566.9c250.4,608.9,192.3,793.2-386.6,1233.8C602.8-55.6,510.6,36.5,510.6,110.6c0,74.1,108.2,184.3,400.6,404.6c572.9,430.6,628.9,620.9,370.6,1247.9c-204.3,490.7-222.3,568.9-142.2,620.9c72.1,48.1,152.2,66.1,490.7,110.2c765.2,100.1,883.3,218.3,983.5,979.5c46.1,358.5,66.1,440.7,118.2,506.8l38.1,46.1l128.2-34.1c68.1-18,256.4-86.1,416.6-152.2c663-276.4,837.3-226.3,1285.9,364.6c230.3,300.4,322.5,392.6,396.6,392.6C5033.4,4597.4,5079.5,4571.3,5131.5,4521.2z"></path><path d="M3745.5,2428.1c-198.3-66.1-322.5-158.2-438.7-322.5c-294.4-414.6-296.5-1001.5-8-1416.1c248.4-356.5,677-456.7,1015.5-238.4c352.5,228.3,532.8,731.1,432.7,1211.8c-66.1,312.5-272.4,600.9-514.8,719.1C4096,2448.1,3871.6,2470.2,3745.5,2428.1z M4132,1959.4c42.1-34,104.2-118.2,144.2-196.3c68.1-132.2,70.1-142.2,70.1-370.6c0-228.3-2-238.3-70.1-370.6c-88.1-172.2-184.3-252.4-316.5-266.4c-166.2-14-288.4,78.1-392.6,296.4c-58.1,120.2-62.1,146.2-62.1,340.5c0,196.3,4,218.3,64.1,340.5c78.1,158.3,94.1,180.3,196.3,250.4C3875.7,2057.6,4021.9,2047.5,4132,1959.4z"></path><path d="M6177.1,2424.1c-42.1-22-356.5-582.9-1358-2419.6c-1067.6-1956.9-1304-2405.6-1304-2465.7c0-164.2,206.3-256.4,328.5-146.2c28,24,632.9,1111.7,1344,2415.6c987.5,1814.7,1291.9,2389.6,1291.9,2439.6c0,90.1-28,138.2-100.1,176.3C6307.3,2462.2,6245.2,2462.2,6177.1,2424.1z"></path><path d="M5926.7-550.4c-402.6-84.1-707.1-538.8-709.1-1053.6c0-168.3,58.1-414.6,136.2-568.9c76.1-152.2,240.4-322.5,388.6-402.6c118.2-64.1,138.2-68.1,316.5-68.1c164.3,0,206.3,8,302.4,52.1c226.4,106.2,398.6,318.5,490.7,606.9c66.1,204.3,74.1,508.8,20,713.1C6739.9-780.7,6327.3-466.2,5926.7-550.4z M6255.2-1025.1c294.5-238.3,324.5-819.2,56.1-1095.6c-150.2-154.2-316.5-162.3-470.7-22c-314.5,284.4-246.4,1001.5,108.2,1165.8C6040.9-936.9,6169.1-957,6255.2-1025.1z"></path></g></g>
</svg>