<?xml version="1.0" encoding="utf-8"?>
<!-- Generator: Adobe Illustrator 24.2.0, SVG Export Plug-In . SVG Version: 6.00 Build 0)  -->
<svg width="30px" height="30px" version="1.1" id="Capa_1" xmlns="http://www.w3.org/2000/svg" xmlns:xlink="http://www.w3.org/1999/xlink" x="0px" y="0px"
	 viewBox="-32 138 498 498" style="enable-background:new -32 138 498 498;" xml:space="preserve">
<style type="text/css">
	.st0{stroke:#000000;stroke-width:6;stroke-miterlimit:10;}
</style>
<path class="st0" d="M458.6,145.4c-5.9-5.9-15.4-5.9-21.2,0l-43.7,43.7c-2.7-1.3-5.5-2.3-8.5-3.1l-135.8-33.5
	c-15.2-3.8-31.6,0.7-42.7,11.8L-15.8,386.5c-17.5,17.5-17.5,46.1,0,63.6l169.7,169.7c17.5,17.5,46.1,17.5,63.6,0l222.2-222.6
	c11.1-11.1,15.6-27.5,11.8-42.7L418,218.8c-0.7-3-1.8-5.8-3.1-8.5l43.7-43.7C464.5,160.7,464.5,151.3,458.6,145.4z M422.4,361.8
	c1.3,5.1-0.2,10.5-3.9,14.2L196.3,598.6c-5.8,5.8-15.4,5.8-21.2,0L5.4,428.9c-5.8-5.8-5.8-15.4,0-21.2l222.6-222.2
	c2.8-2.8,6.7-4.4,10.6-4.4c1.2,0,2.4,0.1,3.6,0.4l127.5,31.5l-36.1,36.1c-16.7-8-37.4-5-51.2,8.8c-17.5,17.5-17.5,46.1,0,63.6
	c8.8,8.8,20.3,13.2,31.8,13.2c11.5,0,23-4.4,31.8-13.2c13.8-13.8,16.7-34.5,8.8-51.2l36.1-36.1L422.4,361.8z M324.8,300.4
	c-5.8,5.8-15.4,5.8-21.2,0c-5.8-5.8-5.8-15.4,0-21.2c2.9-2.9,6.8-4.4,10.6-4.4c3.8,0,7.7,1.5,10.6,4.4l0,0l0,0
	C330.6,285.1,330.6,294.6,324.8,300.4z"/>
<path class="st0" d="M208.4,377.5c16.6-16.6,16.6-43.7,0-60.3c-16.6-16.6-43.7-16.6-60.3,0c-16.6,16.6-16.6,43.7,0,60.3
	C164.7,394.1,191.8,394.1,208.4,377.5z M168.2,337.3c5.5-5.5,14.6-5.5,20.1,0c5.5,5.5,5.5,14.6,0,20.1c-5.5,5.5-14.6,5.5-20.1,0
	S162.7,342.8,168.2,337.3z"/>
<path class="st0" d="M168.2,457.9c-16.6,16.6-16.6,43.7,0,60.3c16.7,16.7,43.6,16.7,60.3,0c16.6-16.6,16.6-43.7,0-60.3
	C211.8,441.2,184.9,441.2,168.2,457.9z M208.4,498.1L208.4,498.1c-5.6,5.6-14.6,5.6-20.1,0c-5.5-5.5-5.5-14.6,0-20.1
	c5.6-5.6,14.6-5.6,20.1,0C214,483.6,214,492.6,208.4,498.1z"/>
<path class="st0" d="M277.2,393.5l-181,20.1c-7.8,0.9-13.4,7.9-12.6,15.7c0.8,7.3,7,12.6,14.1,12.6c0.5,0,1.1,0,1.6-0.1l181-20.1
	c7.8-0.9,13.4-7.9,12.6-15.7C292,398.3,285,392.6,277.2,393.5z"/>
</svg>
